<svg xmlns="http://www.w3.org/2000/svg" viewBox="0 0 920 300" role="img" aria-labelledby="title desc">
  <defs>
    <pattern id="dotBurst" width="18" height="18" patternUnits="userSpaceOnUse">
      <circle cx="5" cy="5" r="3.5" fill="#ff7a1a"/>
    </pattern>
    <marker id="arrowHead" viewBox="0 0 10 10" refX="8" refY="5" markerWidth="7" markerHeight="7" orient="auto-start-reverse">
      <path d="M 0 0 L 10 5 L 0 10 Z" fill="#fff4dc" stroke="#050505" stroke-width="1.8"/>
    </marker>
  </defs>

  <title id="title">URL anatomy</title>
  <desc id="desc">A transparent URL anatomy diagram with orange Frutiger Metro dark mode accents.</desc>

  <g opacity="0.92">
    <rect x="36" y="44" width="156" height="86" fill="url(#dotBurst)" opacity="0.56" transform="rotate(-8 114 87)"/>
    <path d="M 704 42 H 842 V 78 H 704 Z" fill="#ffb000" opacity="0.48" transform="rotate(8 773 60)"/>
    <path d="M 64 240 L 212 184" stroke="#050505" stroke-width="10" stroke-linecap="round" marker-end="url(#arrowHead)"/>
    <path d="M 64 240 L 212 184" stroke="#fff4dc" stroke-width="4" stroke-linecap="round" marker-end="url(#arrowHead)"/>
    <path d="M 734 238 C 780 182 832 256 880 198" fill="none" stroke="#050505" stroke-width="7" stroke-linecap="round"/>
    <path d="M 734 238 C 780 182 832 256 880 198" fill="none" stroke="#ff7a1a" stroke-width="3.5" stroke-linecap="round"/>
    <circle cx="814" cy="58" r="31" fill="#fff4dc" stroke="#050505" stroke-width="7"/>
    <circle cx="814" cy="58" r="15" fill="#e85b1b" stroke="#050505" stroke-width="3.5"/>
    <circle cx="118" cy="216" r="26" fill="#e85b1b" stroke="#050505" stroke-width="7"/>
    <circle cx="118" cy="216" r="10" fill="#ffb000" stroke="#050505" stroke-width="3.5"/>
  </g>

  <g stroke="#050505" stroke-width="5" fill="none" stroke-linecap="round" opacity="0.94">
    <path d="M 206 68 C 252 26 286 104 330 64"/>
    <path d="M 590 72 C 642 28 686 112 734 62"/>
    <path d="M 194 236 C 248 270 302 206 354 242"/>
  </g>
  <g stroke="#fff4dc" stroke-width="2.5" fill="none" stroke-linecap="round">
    <path d="M 206 68 C 252 26 286 104 330 64"/>
    <path d="M 590 72 C 642 28 686 112 734 62"/>
    <path d="M 194 236 C 248 270 302 206 354 242"/>
  </g>

  <g>
    <path d="M 78 104 H 274 L 298 150 L 274 196 H 78 Z" fill="#050505"/>
    <path d="M 288 82 H 604 L 628 150 L 604 218 H 288 L 312 150 Z" fill="#fff4dc" stroke="#050505" stroke-width="8"/>
    <path d="M 618 104 H 842 V 196 H 618 L 642 150 Z" fill="#050505"/>
    <path d="M 86 112 H 264 L 278 139 H 86 Z" fill="#e85b1b"/>
    <path d="M 316 94 H 590 L 600 122 H 326 Z" fill="#ffb000"/>
    <path d="M 638 112 H 834 V 139 H 652 Z" fill="#e85b1b"/>
  </g>

  <text x="176" y="164" text-anchor="middle" font-family="JetBrains Mono, Consolas, monospace" font-size="31" fill="#fff4dc" font-weight="800">https://</text>
  <text x="458" y="164" text-anchor="middle" font-family="JetBrains Mono, Consolas, monospace" font-size="32" fill="#050505" font-weight="800">symlabs.net</text>
  <text x="738" y="164" text-anchor="middle" font-family="JetBrains Mono, Consolas, monospace" font-size="24" fill="#fff4dc" font-weight="800">/courses/html</text>

  <line x1="176" y1="196" x2="176" y2="224" stroke="#050505" stroke-width="5" stroke-linecap="square"/>
  <line x1="458" y1="218" x2="458" y2="236" stroke="#050505" stroke-width="5" stroke-linecap="square"/>
  <line x1="734" y1="196" x2="734" y2="224" stroke="#050505" stroke-width="5" stroke-linecap="square"/>

  <rect x="119" y="224" width="114" height="36" fill="#fff4dc" stroke="#050505" stroke-width="6"/>
  <rect x="371" y="236" width="174" height="36" fill="#050505"/>
  <rect x="674" y="224" width="120" height="36" fill="#fff4dc" stroke="#050505" stroke-width="6"/>
  <text x="176" y="248" text-anchor="middle" font-family="JetBrains Mono, Consolas, monospace" font-size="18" fill="#050505" font-weight="800">scheme</text>
  <text x="458" y="260" text-anchor="middle" font-family="JetBrains Mono, Consolas, monospace" font-size="18" fill="#fff4dc" font-weight="800">domain name</text>
  <text x="734" y="248" text-anchor="middle" font-family="JetBrains Mono, Consolas, monospace" font-size="18" fill="#050505" font-weight="800">path</text>
</svg>
